<svg xmlns="http://www.w3.org/2000/svg" viewBox="0 0 160 160" role="img" aria-labelledby="title">
  <title>MindNet Logo</title>
  <defs>
    <linearGradient id="mindnet-grad" x1="15%" y1="0%" x2="85%" y2="100%">
      <stop offset="0%" stop-color="#22d3ee" />
      <stop offset="100%" stop-color="#6366f1" />
    </linearGradient>
    <radialGradient id="mindnet-glow" cx="50%" cy="50%" r="50%">
      <stop offset="0%" stop-color="rgba(14, 165, 233, 0.25)" />
      <stop offset="100%" stop-color="rgba(14, 165, 233, 0)" />
    </radialGradient>
  </defs>
  <rect width="160" height="160" rx="32" fill="#020617" />
  <circle cx="80" cy="80" r="72" fill="url(#mindnet-glow)" />
  <g transform="translate(28 32)">
    <path
      d="M52 0c28.718 0 52 23.282 52 52s-23.282 52-52 52S0 80.718 0 52 23.282 0 52 0zm0 12C29.908 12 12 29.908 12 52s17.908 40 40 40 40-17.908 40-40S74.092 12 52 12z"
      fill="url(#mindnet-grad)"
    />
    <circle cx="52" cy="52" r="24" fill="url(#mindnet-grad)" opacity="0.9" />
    <circle cx="52" cy="52" r="8" fill="#0ea5e9" />
    <path
      d="M20 60c9.333-16 22-24 38-24s28.667 8 38 24"
      fill="none"
      stroke="#38bdf8"
      stroke-width="4"
      stroke-linecap="round"
      stroke-opacity="0.85"
    />
  </g>
</svg>